<svg width="32" height="32" viewBox="0 0 32 32" fill="none" xmlns="http://www.w3.org/2000/svg">
  <rect width="32" height="32" rx="6" fill="#0ea5e9"/>
  <path d="M8 18c0 4.418 3.582 8 8 8s8-3.582 8-8" stroke="white" stroke-width="2" stroke-linecap="round"/>
  <circle cx="10" cy="14" r="2" fill="white"/>
  <circle cx="22" cy="14" r="2" fill="white"/>
  <path d="M10 16v2c0 .552.448 1 1 1s1-.448 1-1v-2" stroke="white" stroke-width="1.5" stroke-linecap="round"/>
  <path d="M20 16v2c0 .552.448 1 1 1s1-.448 1-1v-2" stroke="white" stroke-width="1.5" stroke-linecap="round"/>
  <path d="M14 18v3c0 1.105.895 2 2 2s2-.895 2-2v-3" stroke="white" stroke-width="2" stroke-linecap="round"/>
</svg>